<svg xmlns="http://www.w3.org/2000/svg" width="50" height="40" viewBox="0 0 50 40" fill="none"><style>.a{fill:#333;}</style><path d="M1.3 27.9C0.8 24.4-0.1 21 0 17.5 0 13.9 0.7 10.6 3.1 7.8 5.1 5.6 7.4 3.9 10 2.5 11.3 1.7 12.8 1.1 14.2 0.7 16.9-0.1 19.5 0 22 1.5 23.4 2.3 24.8 2.5 26.3 1.7 26.7 1.5 27.2 1.4 27.7 1.4 28.6 1.2 29.1 1.6 29.2 2.6 29.3 3.6 29.1 4.7 29 5.7 29 6.8 28.9 7.8 29.2 8.9 30.3 13.3 30 17.8 27.9 21.9 25.6 26.5 21.7 29.5 16.6 30.8 15 31.3 13.3 31.1 11.6 30.5 10.9 30.2 10.3 30 9.6 29.7 8.2 29.2 7 29.5 5.9 30.4 3.8 32.2 2.1 31.6 1.5 29 1.4 28.6 1.3 28.3 1.3 27.9Z" fill="#FCD561"/><path d="M32 25.5C31.2 25.5 30.3 25.5 29.5 25.5 29.5 25.2 29.5 24.8 29.6 24.5 29.7 23.7 29.8 22.8 29.8 22 29.9 21.9 29.9 21.9 29.9 21.8 29.9 21.4 29.7 21.2 29.5 21.1 29.2 21 28.7 21.1 28.5 21.3 28.4 21.4 28.4 21.5 28.4 21.5 28.3 22.2 28.3 22.9 28.2 23.5 28.1 24.2 28.1 24.9 28 25.5 27.1 25.5 26.3 25.5 25.4 25.5 25.5 25 25.5 24.5 25.6 23.9 25.7 22.7 25.9 21.5 26 20.2 26.1 19.6 26.1 19.1 26.2 18.5 26.2 18.4 26.2 18.4 26.2 18.3 26.2 17.9 26.2 17.8 25.8 17.8 25.7 17.8 25.7 17.8 25.7 17.8 25.7 17.3 25.8 16.8 25.8 16.3 25.9 16.3 25.9 16.2 25.9 16.2 26.6 16 27.3 15.9 28 16.1 28.5 16.3 28.8 16.7 28.8 17.3 28.8 17.9 28.7 18.5 28.7 19 28.7 19.1 28.7 19.2 28.7 19.3 29 19.2 29.4 19 29.8 18.9 30.6 18.7 31.4 18.9 32 19.6 32.4 20.1 32.5 20.7 32.5 21.2 32.4 21.8 32.4 22.3 32.3 22.9 32.2 23.8 32.1 24.6 32 25.5Z" class="a"/><path d="M38 19.5C38 19 38.4 19 38.8 19 39.2 19.1 39.7 19 40.2 19 40.1 19.4 40.1 19.8 40.1 20.1 39.9 21.2 39.8 22.3 39.7 23.5 39.7 23.5 39.7 23.6 39.7 23.6 39.7 23.9 39.8 24 40 24 40.1 24 40.1 24 40.2 24 40.2 24.2 40.2 24.4 40.1 24.7 40.1 24.9 40.1 25.2 40.1 25.4 40.1 25.5 40 25.6 40 25.6 39.3 25.8 38.6 25.9 37.9 25.4 37.7 25.3 37.6 25 37.4 24.8 37.2 25 37 25.2 36.7 25.4 35.8 25.9 34.9 25.9 34.1 25.3 33.6 25 33.3 24.6 33.2 24 32.9 22.7 33 21.4 33.7 20.3 34.4 19 35.9 18.5 37.2 19 37.4 19.2 37.7 19.3 38 19.5ZM35.7 22.5C35.7 22.8 35.7 23.1 35.8 23.4 36 23.6 36.3 23.8 36.6 23.7 36.8 23.6 37.2 23.4 37.2 23.1 37.3 22.5 37.3 21.9 37.4 21.3 37.4 21.2 37.3 21.1 37.2 21 36.9 20.7 36.4 20.8 36.1 21.1 35.8 21.5 35.7 22 35.7 22.5Z" class="a"/><path d="M18.7 23.6C18.6 24.2 18.5 24.7 18.5 25.2 18.5 25.3 18.4 25.3 18.3 25.4 17.9 25.5 17.5 25.6 17 25.7 16.3 25.8 15.6 25.8 14.9 25.5 13.7 25.1 12.9 24.2 12.9 22.9 12.8 22 12.9 21.1 13.4 20.3 14.1 19.4 14.9 19 16 18.9 16.7 18.8 17.4 18.9 18.1 19.2 18.9 19.7 19.3 20.5 19.2 21.4 19 22.3 18.5 22.9 17.6 23.1 17.2 23.2 16.8 23.2 16.5 23.2 16.1 23.2 15.7 23.2 15.3 23.2 15.4 23.5 15.6 23.7 15.9 23.8 16.4 24 16.9 24 17.4 23.9 17.8 23.8 18.2 23.7 18.7 23.6ZM15.3 21.8C15.7 21.8 16.2 21.8 16.6 21.7 16.9 21.7 17 21.4 17 21.1 16.9 20.8 16.7 20.6 16.4 20.6 16.1 20.6 15.9 20.7 15.7 21 15.5 21.2 15.4 21.5 15.3 21.8Z" class="a"/><path d="M19.7 20.9C19.8 20.3 19.9 19.7 19.9 19 21.7 19 23.4 19 25.2 19 25.1 19.4 25.1 19.8 25.1 20.2 25.1 20.7 24.9 21.1 24.5 21.4 23.8 22.1 23.2 22.8 22.5 23.6 22.5 23.6 22.4 23.6 22.4 23.7 23.2 23.7 24 23.7 24.8 23.7 24.8 24.3 24.7 24.9 24.6 25.5 22.9 25.5 21.1 25.5 19.4 25.5 19.4 25.2 19.4 24.9 19.5 24.6 19.5 24.4 19.5 24.2 19.5 24 19.5 23.8 19.6 23.6 19.8 23.5 20.6 22.7 21.3 21.9 22.1 21.1 22.2 21 22.2 21 22.3 20.9 21.4 20.9 20.6 20.9 19.7 20.9Z" class="a"/><path d="M42 23C42.8 23 43.3 23.5 43.3 24.3 43.3 25.1 42.8 25.7 42 25.7 41.2 25.7 40.7 25.2 40.7 24.4 40.7 23.6 41.2 23 42 23Z" class="a"/><path d="M27.1 39.8C26.2 39.8 25.4 39.8 24.5 39.8 24.6 39.5 24.6 39.2 24.6 38.9 24.7 38 24.8 37.1 24.9 36.1 24.9 36.1 24.9 36.1 24.9 36.1 25 35.5 24.5 35.1 24 35.3 23.6 35.4 23.5 35.5 23.5 35.9 23.3 37.2 23.2 38.5 23.1 39.8 22.2 39.8 21.4 39.8 20.5 39.8 20.5 39.4 20.6 39.1 20.6 38.7 20.7 37.6 20.8 36.5 21 35.4 21 34.9 21 34.9 20.4 34.8 20.5 34.3 20.5 33.8 20.6 33.4 20.6 33.3 20.6 33.3 20.7 33.3 21.3 33.1 21.9 33 22.5 33.3 22.9 33.5 23.1 33.8 23.1 34.1 23.4 33.9 23.7 33.6 24.1 33.4 24.7 33 25.5 33 26.2 33.2 27 33.5 27.4 34.2 27.5 35 27.5 35.5 27.5 36.1 27.4 36.6 27.3 37.6 27.2 38.6 27.1 39.6 27.1 39.7 27.1 39.7 27.1 39.8Z" class="a"/><path d="M36 34.8C36 34.3 36.1 33.8 36.1 33.3 36.1 33.3 36.2 33.3 36.2 33.2 36.7 33.1 37.3 33 37.8 33.2 38.2 33.3 38.5 33.5 38.6 34 38.6 34 38.6 34.1 38.6 34.1 39 33.9 39.2 33.6 39.6 33.4 40.5 33 41.3 32.9 42.2 33.5 42.7 33.8 43 34.4 43 35 43 35.5 43 36.1 42.9 36.6 42.9 37.6 42.7 38.6 42.6 39.6 42.6 39.7 42.6 39.7 42.6 39.8 41.8 39.8 40.9 39.8 40.1 39.8 40.1 39.4 40.1 38.9 40.2 38.5 40.3 37.7 40.4 36.9 40.5 36.1 40.5 35.7 40.3 35.4 40 35.3 39.8 35.2 39.2 35.3 39.1 35.6 39 35.6 39 35.8 39 35.9 38.9 37.1 38.7 38.4 38.6 39.7 38.6 39.7 38.6 39.8 38.6 39.8 37.7 39.8 36.9 39.8 36 39.8 36.1 39.4 36.1 39.1 36.1 38.7 36.2 37.6 36.4 36.5 36.5 35.4 36.5 35 36.5 34.9 36 34.8Z" class="a"/><path d="M16.1 40C15.3 40 14.5 39.8 13.8 39.2 13.3 38.8 13 38.2 12.9 37.6 12.7 36.5 12.9 35.5 13.5 34.5 14.1 33.7 14.9 33.3 15.9 33.2 16.5 33.1 17.2 33.1 17.8 33.2 18.9 33.5 19.6 34.3 19.8 35.4 20 36.3 19.9 37.2 19.5 38.1 19 39.1 18.1 39.7 16.9 39.9 16.8 39.9 16.7 40 16.6 40 16.4 40 16.3 40 16.1 40ZM15.5 36.8C15.5 37.2 15.5 37.5 15.7 37.8 15.9 38.2 16.3 38.3 16.7 37.9 16.7 37.9 16.8 37.8 16.8 37.8 17.3 37.1 17.3 36.3 17.1 35.5 17.1 35.2 16.9 35 16.6 35 16.3 34.9 16 35.1 15.9 35.3 15.6 35.8 15.5 36.3 15.5 36.8Z" class="a"/><path d="M46.1 37.5C46.2 37.8 46.4 37.9 46.7 38 47.2 38.2 47.7 38.2 48.2 38.1 48.6 38.1 49 38 49.5 37.9 49.4 38 49.4 38.2 49.4 38.3 49.4 38.6 49.3 39 49.3 39.3 49.3 39.5 49.2 39.6 49 39.7 48.6 39.8 48.2 39.9 47.8 39.9 47.1 40 46.4 40 45.7 39.8 44.5 39.4 43.8 38.4 43.7 37.2 43.6 36.2 43.7 35.4 44.3 34.6 44.9 33.7 45.7 33.2 46.8 33.1 47.5 33.1 48.2 33.1 48.9 33.5 49.7 33.9 50.1 34.7 50 35.7 49.8 36.5 49.3 37.1 48.4 37.3 47.8 37.5 47.2 37.5 46.6 37.5 46.5 37.5 46.3 37.5 46.1 37.5ZM46.1 36.1C46.5 36.1 47 36 47.4 36 47.7 35.9 47.8 35.6 47.8 35.3 47.7 35.1 47.5 34.9 47.2 34.9 47.1 34.9 47.1 34.9 47 34.9 46.5 35 46.2 35.4 46.1 36.1Z" class="a"/><path d="M31.5 38.1C31.5 38.6 31.4 39.2 31.3 39.7 31.3 39.7 31.3 39.8 31.2 39.8 30.5 40 29.8 40.1 29.2 39.8 28.5 39.6 28.3 39 28.3 38.3 28.3 37.7 28.4 37.1 28.4 36.5 28.6 35.2 28.7 33.9 28.8 32.5 28.9 32.1 28.8 32.1 28.3 32 28.4 31.5 28.4 31 28.5 30.5 28.5 30.5 28.6 30.4 28.6 30.4 29.2 30.3 29.9 30.2 30.5 30.3 31.2 30.5 31.5 30.9 31.5 31.6 31.4 32.2 31.4 32.9 31.3 33.5 31.2 34.8 31 36.2 30.9 37.5 30.8 37.9 31 38.1 31.4 38.1 31.4 38.1 31.5 38.1 31.5 38.1Z" class="a"/><path d="M34.8 39.8C33.9 39.8 33.1 39.8 32.2 39.8 32.3 39.3 32.3 38.7 32.4 38.2 32.5 37.2 32.6 36.3 32.7 35.3 32.7 35 32.6 34.9 32.3 34.9 32.2 34.9 32.2 34.8 32.1 34.8 32.2 34.3 32.3 33.9 32.3 33.4 32.3 33.3 32.4 33.3 32.4 33.2 33.1 33.1 33.7 33 34.4 33.2 34.9 33.3 35.2 33.7 35.3 34.2 35.3 34.6 35.3 35.1 35.2 35.5 35.1 36.9 34.9 38.3 34.8 39.7 34.8 39.7 34.8 39.8 34.8 39.8Z" class="a"/><path d="M34.2 32.5C33.5 32.5 33 32.1 32.9 31.6 32.8 30.7 33.4 30.1 34.3 30.1 35 30.2 35.4 30.5 35.5 31.1 35.6 31.9 35.1 32.5 34.2 32.5Z" class="a"/></svg>