<svg xmlns="http://www.w3.org/2000/svg" width="22" height="19" viewBox="0 0 22 19" fill="none"><path d="M1.5 8.1C7.3 5.6 11.2 3.8 13.1 3 18.7 0.7 19.8 0.3 20.6 0.2 20.7 0.2 21.1 0.3 21.3 0.5 21.5 0.7 21.6 0.9 21.6 1 21.7 1.2 21.7 1.6 21.7 1.8 21.4 5.1 20.1 12.9 19.4 16.5 19.1 18 18.6 18.5 18 18.6 16.9 18.7 16 17.8 14.9 17 13.1 15.9 12.1 15.1 10.4 14 8.5 12.7 9.7 11.9 10.9 10.7 11.1 10.4 16.2 5.7 16.3 5.3 16.4 5.2 16.4 5 16.3 4.9 16.1 4.8 16 4.8 15.8 4.9 15.7 4.9 12.9 6.8 7.4 10.5 6.6 11.1 5.9 11.4 5.3 11.4 4.6 11.3 3.2 10.9 2.2 10.6 0.9 10.2-0.1 10 0 9.3 0.1 8.9 0.5 8.5 1.5 8.1Z" fill="white"/></svg>
