<svg xmlns="http://www.w3.org/2000/svg" width="24" height="24" viewBox="0 0 24 24" fill="none"><path d="M20.5 3.6C18.3 1.4 15.4 0.2 12.3 0.2 5.9 0.2 0.7 5.4 0.8 11.8 0.8 13.8 1.4 15.8 2.3 17.5L0.7 23.5 6.8 21.9C8.5 22.9 10.4 23.3 12.3 23.3 18.6 23.3 23.8 18.1 23.8 11.7 23.8 8.6 22.6 5.7 20.5 3.6ZM12.3 21.4C10.6 21.4 8.9 20.9 7.5 20.1L7.1 19.9 3.4 20.8 4.4 17.2 4.1 16.8C1.4 12.4 2.7 6.4 7.2 3.7 11.8 0.9 17.6 2.2 20.4 6.7 23.2 11.3 21.8 17.1 17.3 19.9 15.9 20.9 14.1 21.4 12.3 21.4ZM17.9 14.4L17.2 14.1C17.2 14.1 16.2 13.6 15.5 13.3 15.5 13.3 15.4 13.2 15.4 13.2 15.2 13.2 15 13.3 14.9 13.4 14.9 13.4 14.8 13.4 14 14.4 13.9 14.6 13.8 14.6 13.6 14.6H13.6C13.5 14.6 13.4 14.6 13.3 14.5L13 14.4C12.3 14.1 11.7 13.7 11.2 13.2 11.1 13.1 10.9 12.9 10.7 12.8 10.3 12.4 9.9 11.9 9.5 11.3L9.5 11.2C9.4 11.1 9.4 11 9.4 10.9 9.4 10.8 9.4 10.7 9.4 10.6 9.4 10.6 9.7 10.3 9.9 10.1 10 10 10.1 9.8 10.2 9.6 10.3 9.5 10.4 9.2 10.3 9 10.2 8.7 9.5 7 9.3 6.6 9.2 6.4 9 6.4 8.9 6.3H8.7C8.5 6.3 8.4 6.3 8.2 6.3 8 6.3 7.9 6.4 7.8 6.4L7.7 6.4C7.6 6.5 7.5 6.6 7.3 6.7 7.2 6.8 7.2 6.9 7 7.1 6.6 7.6 6.3 8.3 6.3 9 6.3 9.5 6.5 10 6.6 10.5L6.7 10.7C7.3 11.9 8 12.9 9 13.9L9.3 14.1C9.5 14.3 9.7 14.4 9.8 14.6 11.1 15.8 12.6 16.6 14.3 17 14.5 17.1 14.8 17.1 15 17.1 15.2 17.1 15.4 17.1 15.6 17.1 15.9 17.1 16.3 17 16.5 16.9 16.7 16.8 16.9 16.8 17 16.6L17.1 16.5C17.2 16.4 17.4 16.3 17.5 16.2 17.6 16.1 17.7 16 17.8 15.8 17.9 15.6 18 15.3 18.1 14.9 18.1 14.8 18.1 14.6 18.1 14.5 18.1 14.5 18 14.4 17.9 14.4Z" fill="white"/></svg>