<svg width="50" height="40" viewBox="0 0 50 40" fill="none" xmlns="http://www.w3.org/2000/svg">
<path d="M1.28411 27.915C0.846241 24.4303 -0.0714412 21.0036 0.00443119 17.473C0.0463807 13.9302 0.665019 10.5935 3.10582 7.83154C5.07881 5.62923 7.41762 3.90195 10.0011 2.45339C11.3389 1.70732 12.776 1.1115 14.2204 0.709551C16.9031 -0.0532016 19.5226 0.0030905 21.9746 1.49149C23.392 2.34235 24.7902 2.49774 26.2879 1.73231C26.7145 1.50219 27.1943 1.44413 27.6741 1.38608C28.6119 1.22392 29.1498 1.64568 29.1981 2.58106C29.2778 3.64246 29.0958 4.68685 29.0278 5.73368C28.9597 6.7805 28.9037 7.79341 29.1652 8.88151C30.2887 13.3381 30.0115 17.7532 27.929 21.8674C25.5726 26.5341 21.6803 29.5042 16.6493 30.8432C14.9651 31.2742 13.2591 31.1236 11.609 30.4956C10.9427 30.2192 10.2982 29.9888 9.61969 29.7464C8.22886 29.2493 7.03899 29.4744 5.89017 30.441C3.84699 32.1975 2.13872 31.6252 1.51166 28.991C1.40511 28.6469 1.34461 28.281 1.28411 27.915Z" fill="#FCD561"/>
<path d="M32.032 25.5442C31.1702 25.5442 30.333 25.5442 29.4712 25.5442C29.504 25.1913 29.545 24.8466 29.5779 24.5019C29.6682 23.6729 29.7584 22.8439 29.8487 22.0149C29.8569 21.9411 29.8569 21.8672 29.8651 21.7933C29.8733 21.4076 29.7338 21.1531 29.4548 21.0629C29.1511 20.9644 28.6504 21.0957 28.478 21.3255C28.437 21.383 28.4288 21.465 28.4206 21.5389C28.3467 22.2037 28.2811 22.8685 28.2072 23.5334C28.1333 24.1982 28.0677 24.863 27.9938 25.5442C27.1402 25.5442 26.2948 25.5442 25.433 25.5442C25.4905 25.0025 25.5479 24.469 25.5972 23.9355C25.7285 22.6962 25.8598 21.465 25.9911 20.2257C26.0568 19.6429 26.1142 19.0602 26.1799 18.4692C26.1881 18.4118 26.1963 18.3625 26.1963 18.3051C26.2291 17.8701 26.1881 17.829 25.7613 17.7798C25.7449 17.7798 25.7203 17.7716 25.6874 17.7552C25.7367 17.2709 25.7859 16.7785 25.8434 16.2942C25.8516 16.2532 25.9008 16.1957 25.9337 16.1793C26.6313 16.0069 27.3372 15.9166 28.0348 16.13C28.5437 16.286 28.831 16.7374 28.8146 17.3448C28.7981 17.9029 28.7243 18.461 28.675 19.0191C28.6668 19.1176 28.6586 19.2243 28.6504 19.2818C29.0197 19.1505 29.3891 18.9617 29.7749 18.896C30.6367 18.7483 31.4328 18.8878 32.0073 19.6347C32.3603 20.1026 32.4752 20.6525 32.4588 21.227C32.4423 21.7851 32.3685 22.3432 32.311 22.9014C32.2207 23.7714 32.1222 24.6496 32.032 25.5442Z" fill="#333333"/>
<path d="M37.9908 19.528C38.0237 19.0192 38.3766 18.9945 38.8034 19.0192C39.2466 19.052 39.6898 19.0274 40.1577 19.0274C40.1248 19.4049 40.092 19.7578 40.051 20.119C39.9361 21.2352 39.8129 22.3433 39.698 23.4595C39.6898 23.5087 39.6898 23.558 39.6898 23.599C39.6898 23.8781 39.7555 23.952 40.0345 23.9684C40.092 23.9684 40.1412 23.9766 40.2233 23.9766C40.1987 24.2146 40.1741 24.4444 40.1495 24.666C40.1248 24.9205 40.1002 25.1667 40.0674 25.4211C40.0592 25.4704 40.0263 25.5524 39.9935 25.5689C39.2959 25.7905 38.59 25.8643 37.9498 25.4211C37.7364 25.2734 37.6051 25.0189 37.4491 24.822C37.2111 25.0025 36.9567 25.2488 36.653 25.4047C35.7994 25.8561 34.9212 25.8808 34.084 25.339C33.608 25.0354 33.3371 24.5593 33.2058 24.0176C32.9021 22.7126 33.0088 21.4486 33.69 20.2749C34.3959 19.0438 35.9143 18.4939 37.1537 19.0192C37.4491 19.1505 37.6954 19.3475 37.9908 19.528ZM35.6681 22.4664C35.6681 22.8357 35.7337 23.0819 35.8486 23.361C35.9718 23.6483 36.259 23.7632 36.5627 23.6975C36.8418 23.6401 37.1701 23.361 37.1865 23.1476C37.2521 22.5238 37.3096 21.9 37.3588 21.2763C37.3671 21.186 37.3096 21.0629 37.2439 21.0054C36.9238 20.7346 36.3821 20.8002 36.0949 21.1203C35.7501 21.5061 35.6681 21.9739 35.6681 22.4664Z" fill="#333333"/>
<path d="M18.6617 23.6401C18.6042 24.1572 18.5468 24.6907 18.4811 25.216C18.4729 25.2734 18.3991 25.3473 18.3416 25.3555C17.9066 25.4786 17.4798 25.6263 17.0366 25.6838C16.3143 25.7823 15.592 25.7577 14.8862 25.5278C13.6796 25.1257 12.941 24.1654 12.8589 22.8768C12.8014 21.9657 12.941 21.1039 13.4498 20.3324C14.0572 19.4213 14.9272 18.9617 16.0024 18.8714C16.7247 18.814 17.4388 18.8796 18.0954 19.2326C18.9325 19.6922 19.3019 20.4637 19.1706 21.4322C19.0475 22.294 18.5058 22.8768 17.5783 23.0902C17.2171 23.1722 16.8478 23.1969 16.4867 23.2215C16.1009 23.2461 15.7151 23.2297 15.2966 23.2297C15.4033 23.5416 15.6084 23.7057 15.8875 23.796C16.3718 23.952 16.8724 23.9684 17.3649 23.8945C17.7999 23.8289 18.2103 23.7304 18.6617 23.6401ZM15.3212 21.8426C15.748 21.8098 16.1502 21.8016 16.5523 21.7277C16.8642 21.6702 17.0202 21.3666 16.9709 21.0547C16.9299 20.8084 16.7001 20.6361 16.3964 20.6361C16.1009 20.6361 15.8547 20.7346 15.6577 20.9726C15.4607 21.2024 15.3786 21.4897 15.3212 21.8426Z" fill="#333333"/>
<path d="M19.7368 20.8823C19.8025 20.2503 19.8681 19.6512 19.9338 19.0438C21.682 19.0438 23.422 19.0438 25.1867 19.0438C25.1457 19.4214 25.08 19.7989 25.08 20.1765C25.0718 20.6935 24.8502 21.0793 24.489 21.4404C23.8078 22.1217 23.1676 22.8439 22.5192 23.558C22.4864 23.5991 22.4453 23.6401 22.3879 23.7058C23.2251 23.7058 24.0212 23.7058 24.842 23.7058C24.7763 24.3377 24.7107 24.9369 24.645 25.5443C22.8968 25.5443 21.1485 25.5443 19.3839 25.5443C19.4167 25.2078 19.4495 24.8794 19.4824 24.5511C19.4988 24.3706 19.5398 24.1982 19.5398 24.0258C19.5398 23.796 19.6383 23.6401 19.7943 23.4759C20.574 22.6798 21.3373 21.8672 22.1088 21.0629C22.1581 21.0136 22.1991 20.9644 22.273 20.8823C21.4194 20.8823 20.5986 20.8823 19.7368 20.8823Z" fill="#333333"/>
<path d="M42.0125 23.0327C42.7841 23.0162 43.3011 23.5251 43.3094 24.3048C43.3176 25.1256 42.7841 25.6837 41.9715 25.6919C41.1754 25.7002 40.6665 25.2077 40.6665 24.4115C40.6501 23.599 41.1918 23.0491 42.0125 23.0327Z" fill="#333333"/>
<path d="M27.0891 39.7936C26.2355 39.7936 25.3983 39.7936 24.5447 39.7936C24.5694 39.5063 24.6022 39.219 24.6268 38.94C24.7253 38.0125 24.8238 37.0769 24.9223 36.1494C24.9223 36.1248 24.9305 36.0919 24.9305 36.0673C24.9715 35.4764 24.5447 35.1398 23.9784 35.304C23.5927 35.4189 23.5024 35.5338 23.4613 35.9278C23.33 37.2082 23.1905 38.4968 23.051 39.7854C22.1974 39.7854 21.3602 39.7854 20.4984 39.7854C20.5312 39.4242 20.564 39.0795 20.6051 38.7266C20.72 37.635 20.8431 36.5351 20.958 35.4435C21.0072 34.9429 20.9908 34.9182 20.4409 34.828C20.4902 34.3355 20.5476 33.843 20.6051 33.3506C20.6051 33.3177 20.6379 33.2685 20.6707 33.2603C21.2945 33.0715 21.9265 32.973 22.5421 33.2849C22.8868 33.4573 23.051 33.7856 23.133 34.1221C23.4449 33.8841 23.7404 33.6132 24.0687 33.4162C24.7335 33.0223 25.464 32.9812 26.1863 33.2275C27.007 33.5065 27.4092 34.1549 27.4749 34.9839C27.5159 35.5092 27.4831 36.0509 27.4338 36.5762C27.3436 37.5939 27.2204 38.6117 27.1137 39.6376C27.1137 39.6869 27.0973 39.7361 27.0891 39.7936Z" fill="#333333"/>
<path d="M35.9534 34.828C36.0027 34.3355 36.0601 33.8431 36.1176 33.3424C36.1258 33.3014 36.1915 33.2521 36.2407 33.2357C36.7414 33.0798 37.2502 33.0305 37.7591 33.1536C38.1859 33.2603 38.465 33.5476 38.6045 33.9744C38.6209 34.0318 38.6373 34.0893 38.6456 34.1221C38.9574 33.8841 39.2447 33.605 39.5894 33.4245C40.4512 32.9731 41.3377 32.932 42.1748 33.4819C42.7083 33.8349 42.9546 34.3848 42.9956 35.0003C43.0284 35.5338 42.9956 36.0756 42.9464 36.6173C42.8561 37.6186 42.7412 38.6117 42.6345 39.6131C42.6263 39.6705 42.6181 39.7362 42.6098 39.8018C41.7563 39.8018 40.9191 39.8018 40.0573 39.8018C40.1065 39.3586 40.1476 38.9154 40.1968 38.4804C40.2789 37.6843 40.3692 36.8881 40.4512 36.092C40.4923 35.7144 40.3281 35.4354 40.0409 35.3204C39.7536 35.2137 39.2119 35.3369 39.0559 35.5667C38.9985 35.6488 38.9985 35.7719 38.9903 35.8786C38.859 37.1425 38.7194 38.4065 38.5881 39.6705C38.5799 39.7115 38.5799 39.7526 38.5717 39.7936C37.7263 39.7936 36.8891 39.7936 36.0273 39.7936C36.0601 39.4325 36.093 39.0796 36.134 38.7266C36.2489 37.635 36.372 36.5352 36.4869 35.4436C36.528 34.9511 36.5116 34.9347 35.9534 34.828Z" fill="#333333"/>
<path d="M16.1072 39.966C15.2618 39.9825 14.4657 39.8101 13.8008 39.2356C13.2837 38.7841 13.0211 38.2096 12.9144 37.553C12.7338 36.4696 12.9062 35.4518 13.5382 34.5408C14.1045 33.7364 14.9089 33.3014 15.8692 33.1537C16.5176 33.0552 17.166 33.0552 17.798 33.2358C18.8978 33.5477 19.579 34.2617 19.7924 35.3944C19.9648 36.3136 19.8991 37.2083 19.4887 38.0537C18.9634 39.1453 18.0524 39.7198 16.8869 39.925C16.7802 39.9414 16.6735 39.9578 16.5586 39.966C16.4027 39.9743 16.2549 39.966 16.1072 39.966ZM15.4752 36.7568C15.4588 37.159 15.5244 37.5202 15.664 37.7746C15.8938 38.1932 16.3452 38.2671 16.6899 37.9305C16.7392 37.8813 16.7966 37.8238 16.8377 37.7582C17.2809 37.0605 17.3219 36.3054 17.1496 35.5339C17.0921 35.2466 16.9279 35.0168 16.6079 34.9594C16.2713 34.9019 16.0333 35.0579 15.8527 35.3369C15.5573 35.7637 15.4998 36.2562 15.4752 36.7568Z" fill="#333333"/>
<path d="M46.098 37.4709C46.1965 37.791 46.4099 37.9469 46.689 38.0372C47.1732 38.2014 47.6739 38.2096 48.1664 38.1357C48.5932 38.0782 49.0035 37.9715 49.455 37.8895C49.4468 38.0126 49.4303 38.1521 49.4139 38.2998C49.3811 38.6364 49.3319 38.9647 49.3154 39.3012C49.3072 39.4982 49.2252 39.6213 49.0364 39.6623C48.6424 39.7608 48.2484 39.8839 47.8381 39.9332C47.1158 40.0235 46.3935 40.007 45.6876 39.7772C44.4893 39.3833 43.7506 38.4476 43.6604 37.1672C43.5947 36.2397 43.726 35.3533 44.2595 34.5654C44.8669 33.6707 45.7287 33.2029 46.8039 33.1208C47.5262 33.0634 48.2402 33.1208 48.8968 33.482C49.7258 33.9416 50.1116 34.7131 49.972 35.657C49.8489 36.5434 49.3072 37.1097 48.3798 37.3396C47.8052 37.4791 47.2307 37.4709 46.6479 37.4709C46.4756 37.4709 46.295 37.4709 46.098 37.4709ZM46.1391 36.092C46.5495 36.0592 46.9598 36.0427 47.3538 35.9771C47.6575 35.9196 47.8134 35.6159 47.7642 35.2958C47.7231 35.0578 47.5015 34.8937 47.2061 34.8855C47.1322 34.8855 47.0583 34.8937 46.9845 34.9019C46.5084 35.0004 46.1801 35.4436 46.1391 36.092Z" fill="#333333"/>
<path d="M31.5131 38.0782C31.4556 38.6363 31.3982 39.1616 31.3407 39.6951C31.3325 39.7444 31.2751 39.8183 31.2258 39.8347C30.5446 40.0317 29.8469 40.0809 29.1739 39.8265C28.5091 39.572 28.2875 38.9893 28.2875 38.3409C28.2875 37.7417 28.3614 37.1426 28.4188 36.5434C28.5501 35.1973 28.7061 33.8513 28.8456 32.5052C28.8866 32.1277 28.8374 32.0866 28.3285 31.9964C28.3778 31.5039 28.4352 31.0114 28.4927 30.519C28.5009 30.4779 28.5665 30.4205 28.6158 30.4123C29.2478 30.2563 29.888 30.1989 30.52 30.3302C31.1684 30.4615 31.5049 30.9129 31.4721 31.6188C31.4392 32.2426 31.3654 32.8582 31.2997 33.4737C31.1602 34.828 31.0124 36.1741 30.8811 37.5283C30.8401 37.9469 30.9796 38.0864 31.4064 38.0782C31.4228 38.0782 31.4556 38.0782 31.5131 38.0782Z" fill="#333333"/>
<path d="M34.7715 39.7936C33.9179 39.7936 33.0725 39.7936 32.2189 39.7936C32.2764 39.2519 32.3256 38.7102 32.3831 38.1767C32.4816 37.2246 32.5883 36.2726 32.6868 35.3205C32.7196 34.9757 32.6375 34.8773 32.2846 34.8526C32.2435 34.8526 32.2025 34.8444 32.145 34.8362C32.2025 34.3438 32.2517 33.8513 32.3174 33.367C32.3256 33.326 32.3831 33.2603 32.4241 33.2439C33.0643 33.0798 33.7209 33.0223 34.3693 33.1701C34.9192 33.2932 35.2147 33.6789 35.264 34.2124C35.2968 34.6392 35.264 35.0742 35.2229 35.501C35.0834 36.9045 34.9274 38.2998 34.7797 39.6952C34.7879 39.728 34.7797 39.7526 34.7715 39.7936Z" fill="#333333"/>
<path d="M34.1641 32.4724C33.4665 32.456 33.0232 32.1276 32.9412 31.5613C32.818 30.6913 33.4336 30.0593 34.3365 30.125C35.0259 30.1742 35.4363 30.5189 35.502 31.0853C35.5922 31.9307 35.0505 32.4888 34.1641 32.4724Z" fill="#333333"/>
</svg>
