<svg width="22" height="19" viewBox="0 0 22 19" fill="none" xmlns="http://www.w3.org/2000/svg">
<path d="M1.48947 8.14018C7.30556 5.55294 11.1839 3.84728 13.1244 3.02318C18.665 0.67023 19.8162 0.261498 20.5666 0.247857C20.7317 0.245033 21.1007 0.286794 21.3397 0.484832C21.5416 0.652052 21.5971 0.877941 21.6237 1.03648C21.6502 1.19503 21.6833 1.55619 21.657 1.83839C21.3568 5.05941 20.0576 12.876 19.3967 16.4836C19.117 18.0101 18.5664 18.5219 18.0332 18.572C16.8746 18.6808 15.9949 17.7902 14.8727 17.0392C13.1168 15.8639 12.1248 15.1323 10.4204 13.9855C8.45057 12.6602 9.7275 11.9318 10.8501 10.7413C11.1439 10.4298 16.2486 5.68901 16.3474 5.25895C16.3598 5.20516 16.3712 5.00467 16.2546 4.8988C16.1379 4.79294 15.9657 4.82914 15.8415 4.85793C15.6654 4.89874 12.8603 6.7918 7.4261 10.5371C6.62987 11.0954 5.90868 11.3673 5.26251 11.3531C4.55016 11.3374 3.17988 10.9419 2.16122 10.6038C0.911798 10.1891 -0.0812207 9.96985 0.00524895 9.26561C0.0502877 8.89879 0.545028 8.52365 1.48947 8.14018Z" fill="white"/>
</svg>
