<svg width="24" height="24" viewBox="0 0 24 24" fill="none" xmlns="http://www.w3.org/2000/svg">
<path d="M20.4589 3.59063C18.3148 1.38342 15.3508 0.185226 12.3238 0.185226C5.89134 0.185226 0.720168 5.41946 0.783231 11.7888C0.783231 13.8068 1.3508 15.7618 2.29674 17.5276L0.657104 23.5186L6.77422 21.942C8.47692 22.8879 10.3688 23.3294 12.2607 23.3294C18.6301 23.3294 23.8013 18.0951 23.8013 11.7258C23.8013 8.63568 22.6031 5.73478 20.4589 3.59063ZM12.3238 21.3744C10.6211 21.3744 8.91837 20.933 7.46792 20.0501L7.08954 19.8609L3.43188 20.8068L4.37783 17.2123L4.12557 16.8339C1.3508 12.3564 2.67512 6.42847 7.21566 3.65369C11.7562 0.87892 17.6211 2.20324 20.3958 6.74378C23.1706 11.2843 21.8463 17.1492 17.3058 19.924C15.8553 20.8699 14.0895 21.3744 12.3238 21.3744ZM17.8733 14.3744L17.1796 14.0591C17.1796 14.0591 16.1706 13.6177 15.54 13.3023C15.4769 13.3023 15.4139 13.2393 15.3508 13.2393C15.1616 13.2393 15.0355 13.3023 14.9094 13.3654C14.9094 13.3654 14.8463 13.4285 13.9634 14.4375C13.9003 14.5636 13.7742 14.6267 13.6481 14.6267H13.585C13.522 14.6267 13.3958 14.5636 13.3328 14.5005L13.0175 14.3744C12.3238 14.0591 11.6931 13.6807 11.1886 13.1762C11.0625 13.0501 10.8733 12.924 10.7472 12.7978C10.3058 12.3564 9.86431 11.8519 9.549 11.2843L9.48593 11.1582C9.42287 11.0951 9.42287 11.0321 9.35981 10.9059C9.35981 10.7798 9.35981 10.6537 9.42287 10.5906C9.42287 10.5906 9.67512 10.2753 9.86431 10.0861C9.99044 9.96 10.0535 9.77081 10.1796 9.64469C10.3058 9.4555 10.3688 9.20324 10.3058 9.01406C10.2427 8.69874 9.48593 6.99604 9.29674 6.61766C9.17062 6.42847 9.04449 6.36541 8.8553 6.30234H8.66611C8.53999 6.30234 8.3508 6.30234 8.16161 6.30234C8.03548 6.30234 7.90936 6.36541 7.78323 6.36541L7.72017 6.42847C7.59404 6.49153 7.46792 6.61766 7.34179 6.68072C7.21566 6.80685 7.1526 6.93297 7.02647 7.0591C6.58503 7.62667 6.33278 8.32036 6.33278 9.01406C6.33278 9.51856 6.45891 10.0231 6.6481 10.4645L6.71116 10.6537C7.27873 11.8519 8.03548 12.924 9.04449 13.8699L9.29674 14.1222C9.48593 14.3114 9.67512 14.4375 9.80125 14.6267C11.1256 15.7618 12.6391 16.5816 14.3418 17.0231C14.531 17.0861 14.7832 17.0861 14.9724 17.1492C15.1616 17.1492 15.4139 17.1492 15.6031 17.1492C15.9184 17.1492 16.2967 17.0231 16.549 16.8969C16.7382 16.7708 16.8643 16.7708 16.9904 16.6447L17.1166 16.5186C17.2427 16.3924 17.3688 16.3294 17.4949 16.2032C17.6211 16.0771 17.7472 15.951 17.8103 15.8249C17.9364 15.5726 17.9994 15.2573 18.0625 14.942C18.0625 14.8159 18.0625 14.6267 18.0625 14.5005C18.0625 14.5005 17.9994 14.4375 17.8733 14.3744Z" fill="white"/>
</svg>
